# xmcd
#
# Track frame offsets:
#	150
#	22670
#	44530
#	61704
#	81083
#	101859
#	119685
#	141441
#	158897
#	175782
#	193265
#
# Disc length: 2886 seconds
#
# Revision: 2
# Processed by: cddbd v1.5.2PL0 Copyright (c) Steve Scherf et al.
# Submitted via: EasyCDDAExtractor 16.0.9.1
#
DISCID=950b440b
DTITLE=Various Artist - Sau Ngày Ấy
DYEAR=2016
DGENRE=Pop
TTITLE0=Minh Tuyết - Sau Ngày Ấy ©
TTITLE1=Lương Tùng Quang - Hãy Để Anh Xin Lỗi ©
TTITLE2=Diễm Sương - Lời Thề Xưa
TTITLE3=Mai Tiến Dũng - Ngày Mai Chuyện Đã Khác
TTITLE4=Tóc Tiên - Anh Kể Em Nghe
TTITLE5=Lê Anh Tuấn - Đừng ©
TTITLE6=Don Hồ and Lam Anh - Tình Yêu Còn Lại
TTITLE7=Như Loan - Tình Ghen
TTITLE8=Justin Nguyễn - Sài Gòn Vắng Em ©
TTITLE9=Hoàng Mỹ An - Nothing's Gonna Change My Love ©
TTITLE10=Nguyễn Hưng - Cỏ Nhớ Tên Em
EXTD=
EXTT0=
EXTT1=
EXTT2=
EXTT3=
EXTT4=
EXTT5=
EXTT6=
EXTT7=
EXTT8=
EXTT9=
EXTT10=
PLAYORDER=
